<?xml version="1.0" encoding="utf-8"?>
<!-- Generator: Adobe Illustrator 23.0.2, SVG Export Plug-In . SVG Version: 6.00 Build 0)  -->
<svg version="1.1" id="Layer_1" xmlns="http://www.w3.org/2000/svg" xmlns:xlink="http://www.w3.org/1999/xlink" x="0px" y="0px"
	 viewBox="0 0 509.8 511.3" style="enable-background:new 0 0 509.8 511.3;" xml:space="preserve">
<style type="text/css">
	.st0{fill:none;stroke:#D76A29;stroke-width:28;stroke-miterlimit:10;}
	.st1{fill:#D76A29;}
</style>
<g>
	<path class="st0" d="M492.4,131.8c-7.3-47.2-30.5-82.9-74.7-103C399.8,20.8,380.8,17,361.4,16c-66.6-3.2-133.3-2.5-199.9-0.9
		c-25,0.6-49.6,3.8-72.4,14.7C50.5,48.3,27.9,79.5,18.8,121c-5.1,23.4-5.4,47.4-5.5,71.1c-0.2,52.2,0.2,104.5,0.8,156.7
		c0.3,25.4,3.6,50.4,14.5,73.7c17.6,37.4,47.2,60.1,86.9,69.9c18.9,4.7,38.2,5.4,57.5,5.9c3,0.1,5.9,0.5,8.9,0.7h145.3
		c11.4-0.6,22.8-1.1,34.2-1.9c32.9-2.2,63.2-11.2,88.5-33.7c23.3-20.7,36.2-47.1,41.4-77.6c1.6-9.5,2.1-19.1,3.1-28.6
		c0.2-1.7,0.5-3.4,0.8-5.1V157.1C494.3,148.7,493.6,140.2,492.4,131.8z"/>
	<path class="st0" d="M254.8,133.5c-67.6-0.6-123,54.4-123.5,122.6c-0.5,67.6,54.6,123,122.7,123.4c67.5,0.4,122.5-54.2,123.2-122.4
		C378,189.5,323.1,134.1,254.8,133.5z"/>
	<path class="st1" d="M420.9,118.6c-0.1,12.4-10,22.1-22.4,22c-12.1-0.1-21.9-10.1-21.8-22.2c0-12.2,9.9-21.9,22.1-22
		C411.1,96.4,420.9,106.2,420.9,118.6z"/>
</g>
</svg>
