<?xml version="1.0" encoding="utf-8"?>
<!-- Generator: Adobe Illustrator 23.0.2, SVG Export Plug-In . SVG Version: 6.00 Build 0)  -->
<svg version="1.1" id="_x2014_ÎÓÈ_x5F_1" xmlns="http://www.w3.org/2000/svg" xmlns:xlink="http://www.w3.org/1999/xlink"
	 x="0px" y="0px" viewBox="0 0 1200 600" style="enable-background:new 0 0 1200 600;" xml:space="preserve">
<style type="text/css">
	.st0{fill:#D76A29;}
</style>
<g>
	<path class="st0" d="M852.9,3.8c-70-3.2-150.2,27.7-214.6,52.5C605.2,69,576.6,80.1,557,83.5c-13.4,2.3-39.4,3.3-72.2,4.4
		c-108.3,3.8-289.6,10.2-372.6,80.7C45.9,225,5.2,303,0.4,382.8c-3,50.6,9.4,96,33.1,121.6c44.5,47.9,170.2,62.1,267.8,65.5
		c1.2,0,2.4,0.1,3.5,0.1c31.9,0,36.2-16.1,36.5-23.1c0.1-1.9-0.1-3.9-0.5-5.8c32.1,5.2,98.8,14.2,182.2,16.4
		c4.9,0.1,10.1,0.2,15.7,0.2c66.5,0,178.5-8.5,200.6-10.2c19.1,15.7,40.5,31.5,58.3,39.3c15.6,6.8,54.9,10.1,90.4,10.1
		c29.7,0,56.7-2.3,65-6.6c4.7-2.4,6.3-5.9,6.8-8.4c5.5-26.9-22.6-40.2-41.3-49c-1.9-0.9-4.1-2-6.2-3c3.3-1.2,8.1-2.7,14.9-4.4
		c0.6,0.5,1.3,1.1,2,1.7c8,6.8,19,16,32,18.2c3.6,0.6,15,1.1,29.4,1.1c29.8,0,72-2.1,81.7-9.6c2.8-2.2,4.5-5.1,4.8-8.4
		c2-24.6-28-44.7-52.5-53.4c11.9-16.7,16.7-34.3,20.3-48c5.2-19.6,7-21.6,11.9-21.2c53.5,5.1,80.8-30.1,87.6-40.4
		c7.1-3.3,13.6-7.5,19.6-12.7c33.6-29.6,35.9-78.9,36-81.3c0-44.4-19.1-72.7-46.2-107.8C1117.3,116.1,990.9,10.1,852.9,3.8z
		 M1056.9,522.1c-18.1,4.3-79.3,5.9-92.3,3.7c-4.2-0.7-8.7-3.2-12.9-6.2c24.5-5.9,43.7-15.3,58.5-28.6
		C1029.2,495.4,1052.5,510.1,1056.9,522.1z M1151,337.9c-14.5,12.8-34,18.2-57.9,16.1c-5.4-0.4-10.2,3.5-10.7,8.9s3.5,10.2,8.9,10.7
		c6,0.5,11.7,0.6,17.3,0.3c-11.4,7.8-27.8,14.4-50.1,12.3c-22.7-2-28,18-32.7,35.7c-4.3,16.2-9.7,36.5-26.9,52.8
		c-13.4,12.8-31.9,21.6-56.7,27c-7.2,1.6-13.4,3-18.8,4.4c-23,5.9-35.7,11.1-36.7,22c-1.1,11,9.7,16.1,23.4,22.6
		c15.7,7.4,28.8,14.4,30.5,23.3c-21.8,5.2-112.8,4.7-135.2-5.1c-38.1-16.7-100-78.4-100.6-79c-3.8-3.8-10.1-3.8-13.9,0
		c-3.8,3.8-3.8,10.1,0,13.9c1.1,1.1,12,11.9,27.3,25.7c-44.9,3.3-143.8,9.8-194.7,8.5c-104.5-2.8-182.4-16.5-197-19.2
		c-14.3-12.9-37.1-22.9-60.7-24.4c-24.7-1.6-31.1-28.6-31.3-29.7c-1.2-5.3-6.4-8.6-11.7-7.5c-5.3,1.2-8.7,6.4-7.5,11.7
		c3.2,14.7,17.6,43.1,49.3,45.1c33.8,2.2,57.6,23.6,57.2,32.1c-0.1,1.8-6,4.8-19.7,4.4c-132.7-4.6-223-25.7-254.1-59.2
		c-20.2-22-30.6-62-27.9-107.3c4.4-74.5,42.6-147.5,104.8-200.4c77.7-66,254.7-72.3,360.5-76c33.6-1.2,60.2-2.1,74.9-4.7
		c21.5-3.8,50.9-15.1,85-28.2C708,50.5,786.1,20.6,852,23.5c144.2,6.5,264.2,123.4,286.2,152c29.1,37.8,42.1,60.6,42.1,95.4
		C1180.3,271.3,1178.4,313.7,1151,337.9z"/>
	<path class="st0" d="M991.6,146.6c-15.9,0-28.8,14-28.8,31.2s12.9,31.2,28.8,31.2c15.9,0,28.8-14,28.8-31.2
		C1020.3,160.6,1007.5,146.6,991.6,146.6z"/>
	<path class="st0" d="M790,47.4c-50.7,13.7-79.5,35.3-114.9,70.4c-14.1,13.9-16.2,31.2-5.7,46.2c12.7,18.2,42.7,30.8,74.9,30.8
		c16.2,0,32.9-3.2,48.3-10.5c38.5-18.3,46.7-86.6,47-89.5c0.6-5.4-3.3-10.3-8.7-10.9c-5.4-0.7-10.3,3.3-10.9,8.7
		c-1.9,16.7-12,62.7-35.9,74c-38.7,18.3-85.8,4.5-98.6-13.9c-3.1-4.4-6.1-11.4,3.4-20.9c33.8-33.5,59.5-52.8,106.2-65.4
		c39.3-10.6,76.1,16.7,81,21.7c3,4,8.6,5.1,13,2.5c4.6-2.8,6.1-8.9,3.2-13.5C888,70.1,841.3,33.5,790,47.4z"/>
</g>
</svg>
